<?xml version="1.0" standalone="no"?><!DOCTYPE svg PUBLIC "-//W3C//DTD SVG 1.1//EN" "http://www.w3.org/Graphics/SVG/1.1/DTD/svg11.dtd"><svg t="1588394526160" class="icon" viewBox="0 0 1024 1024" version="1.1" xmlns="http://www.w3.org/2000/svg" p-id="2118" xmlns:xlink="http://www.w3.org/1999/xlink" width="200" height="200"><defs><style type="text/css"></style></defs><path d="M99.28704 213.83168a11.1616 11.1616 0 0 0 2.9696 0.38912h820.30592c1.08544 0 3.584-0.34816 4.62848-0.63488a45.54752 45.54752 0 0 0 31.49824-31.49824 45.38368 45.38368 0 0 0-3.9936-34.85696c-6.12352-11.01824-16.19968-18.65728-29.14304-22.07744a11.40736 11.40736 0 0 0-2.99008-0.38912l-821.73952 0.2048a11.264 11.264 0 0 0-3.19488 0.45056A45.54752 45.54752 0 0 0 66.1504 156.8768a45.44512 45.44512 0 0 0 3.9936 34.87744c6.12352 11.01824 16.19968 18.6368 29.14304 22.07744zM87.90016 771.2768a40.48896 40.48896 0 0 0 15.99488 0.38912 43.15136 43.15136 0 0 0 29.75744-13.23008l208.19968-207.09376a45.40416 45.40416 0 0 0-0.04096-63.97952L132.62848 279.36768a44.2368 44.2368 0 0 0-28.42624-10.3424c-6.98368 0-14.0288 1.67936-18.5344 4.15744-16.0768 6.10304-27.05408 20.70528-28.69248 39.17824v416.17408c-0.14336 18.78016 11.38688 35.38944 30.9248 42.74176z m59.65824-152.3712v-197.26336l97.85344 97.85344-97.85344 99.40992zM921.2928 340.72576l-383.34464 0.1024a46.22336 46.22336 0 0 0-16.62976 0.22528c-11.8784 2.37568-22.1184 9.23648-28.81536 19.31264-6.69696 10.07616-9.07264 22.15936-6.69696 34.01728a45.40416 45.40416 0 0 0 44.35968 36.37248c1.57696 0 4.32128-0.08192 6.92224-0.57344L920.45312 430.08a46.22336 46.22336 0 0 0 16.62976-0.22528 45.3632 45.3632 0 0 0 35.49184-53.3504 45.40416 45.40416 0 0 0-44.38016-36.352c-1.57696 0-4.3008 0.08192-6.90176 0.57344zM924.7744 614.912a11.40736 11.40736 0 0 0-2.21184-0.22528l-387.74784 0.12288a10.58816 10.58816 0 0 0-2.27328 0.24576 45.13792 45.13792 0 0 0-28.79488 69.26336c6.84032 10.24 17.46944 17.2032 29.85984 19.64032a11.40736 11.40736 0 0 0 2.21184 0.22528h386.72384c0.75776 0 2.56-0.18432 3.29728-0.34816a45.11744 45.11744 0 0 0 35.49184-35.47136c2.37568-11.79648 0-23.79776-6.67648-33.77152a46.2848 46.2848 0 0 0-29.88032-19.68128zM925.51168 812.07296a11.18208 11.18208 0 0 0-2.9696-0.4096l-821.73952 0.2048a12.04224 12.04224 0 0 0-3.19488 0.45056 45.50656 45.50656 0 0 0-31.47776 31.47776 45.54752 45.54752 0 0 0 3.9936 34.87744c6.12352 11.01824 16.22016 18.6368 29.14304 22.05696 0.96256 0.26624 1.96608 0.4096 2.9696 0.4096h820.30592c1.08544 0 3.56352-0.36864 4.608-0.65536a45.52704 45.52704 0 0 0 31.51872-31.45728 45.44512 45.44512 0 0 0-3.9936-34.87744c-6.144-11.03872-16.22016-18.67776-29.16352-22.07744z" p-id="2119" fill="#ffffff"></path></svg>